<?xml version="1.0" encoding="UTF-8" standalone="no"?>
<!-- Created with Inkscape (http://www.inkscape.org/) -->

<svg
   width="33.953613mm"
   height="39.791565mm"
   viewBox="0 0 33.953613 39.791565"
   version="1.1"
   id="svg5"
   inkscape:version="1.1.1 (3bf5ae0d25, 2021-09-20)"
   sodipodi:docname="inkporter-svg-ry2n6ek7.svg"
   xmlns:inkscape="http://www.inkscape.org/namespaces/inkscape"
   xmlns:sodipodi="http://sodipodi.sourceforge.net/DTD/sodipodi-0.dtd"
   xmlns="http://www.w3.org/2000/svg"
   xmlns:svg="http://www.w3.org/2000/svg">
  <sodipodi:namedview
     id="namedview7"
     pagecolor="#505050"
     bordercolor="#eeeeee"
     borderopacity="1"
     inkscape:pageshadow="0"
     inkscape:pageopacity="0"
     inkscape:pagecheckerboard="false"
     inkscape:document-units="px"
     showgrid="false"
     borderlayer="true"
     inkscape:zoom="0.5"
     inkscape:cx="112"
     inkscape:cy="233"
     inkscape:window-width="1920"
     inkscape:window-height="1027"
     inkscape:window-x="1908"
     inkscape:window-y="1102"
     inkscape:window-maximized="1"
     inkscape:current-layer="g1165"
     inkscape:snap-bbox="true" />
  <defs
     id="defs2" />
  <g
     inkscape:groupmode="layer"
     id="g8487"
     inkscape:label="CommentColor"
     style="display:inline"
     transform="translate(-133.19879,-46.068526)">
    <g
       id="comment_color"
       transform="translate(-5.6719445e-6,-0.3377736)">
      <g
         id="g22492"
         transform="translate(130.175,46.302082)">
        <g
           id="g8485">
          <rect
             style="fill:#bdbdbd;fill-opacity:1;stroke:#3a3a3a;stroke-width:1.5875;stroke-linecap:round;stroke-linejoin:round;stroke-miterlimit:4;stroke-dasharray:none;stroke-opacity:1;paint-order:stroke fill markers"
             id="rect8481"
             width="23.095119"
             height="38.204063"
             x="3.8175499"
             y="0.89796776"
             ry="2.5730395"
             rx="2.5730395" />
        </g>
        <path
           style="fill:#48aab5;stroke:#3a3a3a;stroke-width:0.79375;stroke-linecap:round;stroke-linejoin:round"
           d="m 30.032433,16.483747 a 7.9512682,7.9512682 0 0 1 -7.951268,7.951268 7.9512682,7.9512682 0 0 1 -7.951269,-7.951268 7.9512682,7.9512682 0 0 1 7.951269,-7.9512687 7.9512682,7.9512682 0 0 1 7.951268,7.9512687 z"
           id="path14244" />
        <path
           style="fill:#ffaa5f;fill-opacity:1;stroke:#3a3a3a;stroke-width:0.79375;stroke-linecap:round;stroke-linejoin:round"
           d="m 36.580536,22.751217 a 7.9512682,7.9512682 0 0 1 -7.951268,7.951268 7.9512682,7.9512682 0 0 1 -7.951268,-7.951268 7.9512682,7.9512682 0 0 1 7.951268,-7.951268 7.9512682,7.9512682 0 0 1 7.951268,7.951268 z"
           id="circle8695" />
      </g>
    </g>
  </g>
</svg>
